# xmcd CD database file
#
# Track frame offsets:
#	150
#	18733
#	41905
#	69181
#	87638
#	126311
#
# Disc length: 2141 seconds
#
# Revision: 0
# Processed by: cddbd v1.5.2PL0 Copyright (c) Steve Scherf et al.
# Submitted via: CDex 1.51
#
DISCID=53085b06
DTITLE=Alex Bioli - Circle Trip
DYEAR=2010
DGENRE=Jazz
TTITLE0=Cris
TTITLE1=Almalinda
TTITLE2=Ancora ancora ancora
TTITLE3=Bellosguardo
TTITLE4=Stand
TTITLE5=Ady
EXTD=YEAR: 2010
EXTT0=
EXTT1=
EXTT2=
EXTT3=
EXTT4=
EXTT5=
PLAYORDER=
